<svg xmlns="http://www.w3.org/2000/svg" width="112" height="26" fill="none" viewBox="0 0 112 26">
    <path fill="#000" d="M40.558 14.902h-4.543l-1.094 3.227H33l4.302-11.927H39.3l4.302 11.927h-1.96l-1.084-3.227zm-4.072-1.488h3.601L38.31 8.18h-.048l-1.776 5.234zM52.906 13.779c0 2.698-1.45 4.436-3.63 4.436-1.123.058-2.19-.528-2.737-1.517h-.038V21h-1.786V9.438h1.728v1.45h.03c.566-.98 1.632-1.575 2.765-1.536 2.218-.01 3.668 1.738 3.668 4.427zm-1.834 0c0-1.758-.912-2.92-2.295-2.92-1.364 0-2.286 1.181-2.286 2.92 0 1.747.922 2.928 2.286 2.928 1.383 0 2.295-1.152 2.295-2.928zM62.48 13.779c0 2.698-1.45 4.436-3.63 4.436-1.123.058-2.189-.528-2.736-1.517h-.039V21H54.29V9.438h1.729v1.45h.028c.567-.98 1.633-1.575 2.766-1.536 2.209-.01 3.668 1.738 3.668 4.427zm-1.843 0c0-1.758-.913-2.92-2.295-2.92-1.364 0-2.286 1.181-2.286 2.92 0 1.747.922 2.928 2.286 2.928 1.392 0 2.295-1.152 2.295-2.928zM68.8 14.806c.134 1.181 1.276 1.959 2.851 1.959 1.508 0 2.584-.778 2.584-1.844 0-.922-.653-1.479-2.2-1.863l-1.546-.374c-2.19-.528-3.207-1.556-3.207-3.217 0-2.055 1.796-3.467 4.34-3.467 2.516 0 4.245 1.412 4.303 3.467h-1.806c-.105-1.191-1.094-1.911-2.525-1.911-1.44 0-2.42.73-2.42 1.786 0 .845.624 1.335 2.16 1.719l1.316.326c2.449.576 3.467 1.566 3.467 3.304 0 2.228-1.777 3.63-4.6 3.63-2.641 0-4.427-1.364-4.542-3.525l1.824.01zM79.977 7.373v2.055h1.652v1.412h-1.652v4.792c0 .749.327 1.095 1.057 1.095.192 0 .393-.02.585-.039v1.402c-.326.058-.662.087-.989.087-1.757 0-2.448-.663-2.448-2.343V10.85h-1.268V9.438h1.268V7.383h1.795v-.01zM82.58 13.778c0-2.736 1.613-4.455 4.12-4.455 2.516 0 4.12 1.719 4.12 4.455 0 2.747-1.595 4.456-4.12 4.456-2.516 0-4.12-1.71-4.12-4.456zm6.434 0c0-1.872-.864-2.986-2.305-2.986-1.44 0-2.304 1.114-2.304 2.986 0 1.883.864 2.987 2.304 2.987s2.305-1.104 2.305-2.987zM92.309 9.438h1.7v1.479h.038c.24-.951 1.114-1.604 2.093-1.575.202 0 .413.02.615.067v1.671c-.26-.077-.528-.115-.797-.106-.99-.038-1.834.73-1.873 1.729 0 .096 0 .182.01.278v5.157h-1.786v-8.7zM104.977 15.574c-.241 1.575-1.777 2.66-3.746 2.66-2.525 0-4.1-1.69-4.1-4.417s1.575-4.494 4.024-4.494c2.4 0 3.918 1.651 3.918 4.292v.615h-6.137v.105c-.105 1.249.807 2.343 2.055 2.459.096.01.192.01.279.01.864.076 1.68-.414 2.007-1.22l1.7-.01zm-6.031-2.593h4.35c.067-1.152-.816-2.141-1.969-2.199h-.163c-1.22-.01-2.209.97-2.218 2.19v.01zM18.038 12.77c.02-1.721.929-3.314 2.395-4.224-.929-1.329-2.434-2.14-4.057-2.19-1.71-.175-3.362 1.017-4.232 1.017-.89 0-2.229-1.006-3.666-.977-1.896.068-3.626 1.124-4.545 2.786-1.965 3.402-.499 8.406 1.388 11.153.938 1.35 2.043 2.855 3.48 2.796 1.407-.059 1.935-.9 3.636-.9 1.681 0 2.18.9 3.646.87 1.515-.029 2.463-1.348 3.373-2.717.674-.958 1.202-2.023 1.544-3.148-1.789-.752-2.962-2.512-2.962-4.467zM15.262 4.548c.822-.987 1.232-2.267 1.134-3.548-1.26.137-2.424.733-3.264 1.691-.822.939-1.242 2.16-1.164 3.412 1.28.01 2.493-.558 3.294-1.555z"/>
</svg>
