<svg xmlns="http://www.w3.org/2000/svg" width="112" height="26" fill="none" viewBox="0 0 112 26">
    <path fill="#373B41" fill-rule="evenodd" d="M56.23 11.167c-2.278 0-4.125 1.729-4.125 4.114 0 2.362 1.859 4.113 4.125 4.113 2.279 0 4.126-1.74 4.126-4.113 0-2.385-1.847-4.114-4.126-4.114zm0 6.597c-1.246 0-2.32-1.032-2.32-2.493 0-1.483 1.076-2.493 2.32-2.493 1.247 0 2.32 1.01 2.32 2.493.002 1.47-1.073 2.493-2.32 2.493zm-9.001-6.597c-2.279 0-4.126 1.729-4.126 4.114 0 2.362 1.86 4.113 4.126 4.113 2.279 0 4.126-1.74 4.126-4.113 0-2.385-1.85-4.114-4.126-4.114zm0 6.597c-1.247 0-2.32-1.032-2.32-2.493 0-1.483 1.076-2.493 2.32-2.493 1.247 0 2.32 1.01 2.32 2.493 0 1.47-1.073 2.493-2.32 2.493zm-10.71-5.34v1.74h4.178c-.128.977-.45 1.698-.945 2.192-.613.612-1.558 1.278-3.224 1.278-2.568 0-4.577-2.074-4.577-4.642 0-2.568 2.009-4.641 4.577-4.641 1.386 0 2.397.547 3.147 1.246l1.234-1.234C39.868 7.364 38.481 6.6 36.538 6.6c-3.523 0-6.48 2.87-6.48 6.383 0 3.522 2.954 6.382 6.48 6.382 1.902 0 3.33-.622 4.458-1.794 1.15-1.15 1.514-2.773 1.514-4.082 0-.408-.031-.774-.096-1.085h-5.898c.002-.003.002.02.002.02zm43.81 1.354c-.346-.923-1.387-2.62-3.524-2.62-2.117 0-3.877 1.665-3.877 4.113 0 2.31 1.74 4.113 4.082 4.113 1.881 0 2.976-1.15 3.427-1.825l-1.397-.936c-.463.688-1.106 1.139-2.02 1.139-.924 0-1.57-.42-1.999-1.247l5.5-2.279c0 .003-.193-.458-.193-.458zm-5.61 1.375c-.043-1.59 1.235-2.397 2.149-2.397.72 0 1.321.354 1.526.87l-3.674 1.527zm-4.468 3.986h1.806V7.053h-1.806v12.085zm-2.965-7.058h-.065c-.408-.485-1.182-.924-2.17-.924-2.053 0-3.943 1.806-3.943 4.126 0 2.31 1.88 4.094 3.943 4.094.976 0 1.762-.441 2.17-.935h.065v.59c0 1.57-.84 2.416-2.192 2.416-1.107 0-1.794-.795-2.074-1.46l-1.57.655c.451 1.085 1.655 2.428 3.641 2.428 2.118 0 3.912-1.246 3.912-4.287v-7.38h-1.708v.677h-.01zm-2.074 5.683c-1.247 0-2.288-1.042-2.288-2.481 0-1.452 1.041-2.503 2.288-2.503 1.235 0 2.192 1.063 2.192 2.503.012 1.44-.955 2.481-2.192 2.481zm23.572-10.71h-4.318v12.085h1.806v-4.577h2.515c1.999 0 3.964-1.45 3.964-3.75s-1.958-3.759-3.967-3.759zm.053 5.82H86.27V8.727h2.568c1.353 0 2.117 1.116 2.117 2.073 0 .948-.774 2.074-2.117 2.074zm11.152-1.729c-1.311 0-2.664.581-3.224 1.847l1.602.666c.344-.666.976-.893 1.644-.893.936 0 1.881.56 1.903 1.558v.128c-.324-.183-1.033-.463-1.881-.463-1.73 0-3.482.945-3.482 2.718 0 1.622 1.418 2.664 2.997 2.664 1.213 0 1.881-.547 2.298-1.182h.065v.936h1.741v-4.63c0-2.155-1.601-3.349-3.663-3.349zm-.226 6.619c-.591 0-1.418-.29-1.418-1.032 0-.935 1.032-1.29 1.912-1.29.796 0 1.172.171 1.644.408-.13 1.085-1.046 1.904-2.138 1.914zm10.24-6.36l-2.073 5.241h-.066l-2.148-5.242h-1.943l3.223 7.328-1.837 4.073h1.881l4.96-11.4h-1.997zm-16.256 7.735h1.806V7.053h-1.806v12.085z" clip-rule="evenodd"/>
    <path fill="url(#paint0_linear)" fill-rule="evenodd" d="M.441 1.38C.161 1.683 0 2.144 0 2.747v21.38c0 .603.162 1.063.45 1.353l.076.065 11.979-11.98v-.267L.516 1.316l-.075.065z" clip-rule="evenodd"/>
    <path fill="url(#paint1_linear)" fill-rule="evenodd" d="M16.491 17.57l-3.995-3.996v-.28L16.491 9.3l.087.053 4.726 2.687c1.353.761 1.353 2.02 0 2.792l-4.726 2.686-.087.053z" clip-rule="evenodd"/>
    <path fill="url(#paint2_linear)" fill-rule="evenodd" d="M16.577 17.517l-4.082-4.082L.441 25.488c.442.473 1.182.526 2.009.066l14.127-8.037z" clip-rule="evenodd"/>
    <path fill="url(#paint3_linear)" fill-rule="evenodd" d="M16.577 9.352L2.45 1.328C1.623.855.88.92.441 1.393l12.054 12.042 4.082-4.083z" clip-rule="evenodd"/>
    <path fill="#000" fill-rule="evenodd" d="M16.49 17.43L2.46 25.4c-.784.451-1.483.42-1.934.01l-.075.075.075.065c.45.408 1.15.441 1.934-.01l14.127-8.024-.096-.087z" clip-rule="evenodd" opacity=".2"/>
    <path fill="#000" fill-rule="evenodd" d="M21.303 14.69l-4.825 2.74.087.087 4.726-2.686c.678-.386 1.01-.893 1.01-1.396-.04.463-.385.901-.997 1.256z" clip-rule="evenodd" opacity=".12"/>
    <path fill="#fff" fill-rule="evenodd" d="M2.45 1.468l18.853 10.71c.613.345.958.796 1.01 1.257 0-.504-.332-1.01-1.01-1.396L2.45 1.328C1.097.554 0 1.2 0 2.746v.14C0 1.336 1.097.702 2.45 1.467z" clip-rule="evenodd" opacity=".25"/>
    <defs>
        <linearGradient id="paint0_linear" x1="11.43" x2="-7.758" y1="2.516" y2="7.628" gradientUnits="userSpaceOnUse">
            <stop stop-color="#00A0FF"/>
            <stop offset=".007" stop-color="#00A1FF"/>
            <stop offset=".26" stop-color="#00BEFF"/>
            <stop offset=".512" stop-color="#00D2FF"/>
            <stop offset=".76" stop-color="#00DFFF"/>
            <stop offset="1" stop-color="#00E3FF"/>
        </linearGradient>
        <linearGradient id="paint1_linear" x1="23.068" x2="-.328" y1="13.435" y2="13.435" gradientUnits="userSpaceOnUse">
            <stop stop-color="#FFE000"/>
            <stop offset=".409" stop-color="#FFBD00"/>
            <stop offset=".775" stop-color="orange"/>
            <stop offset="1" stop-color="#FF9C00"/>
        </linearGradient>
        <linearGradient id="paint2_linear" x1="14.357" x2="-1.048" y1="15.655" y2="41.582" gradientUnits="userSpaceOnUse">
            <stop stop-color="#FF3A44"/>
            <stop offset="1" stop-color="#C31162"/>
        </linearGradient>
        <linearGradient id="paint3_linear" x1="-2.594" x2="4.279" y1="-5.731" y2="5.849" gradientUnits="userSpaceOnUse">
            <stop stop-color="#32A071"/>
            <stop offset=".069" stop-color="#2DA771"/>
            <stop offset=".476" stop-color="#15CF74"/>
            <stop offset=".801" stop-color="#06E775"/>
            <stop offset="1" stop-color="#00F076"/>
        </linearGradient>
    </defs>
</svg>
